<svg width="1001" height="496" fill="none" xmlns="http://www.w3.org/2000/svg"><path d="M1008.08 163.448L443.182-356.858V-747.19L28.11-770c-3.206 7.544-23.743 29.286-20.538 41.404 3.858 14.494 23.267 9.861 28.906 19.187 6.588 10.989-4.749 55.66-8.132 68.549-6.47 24.415-21.25 44.195-25.524 68.61-7.182 40.987 7.36 37.72 34.902 63.323 46.417 43.185 9.2 87.975 20.894 138.704 9.497 41.345 50.987 62.669 66.182 104.012 11.753 31.841 27.897 39.978 52.946 63.264-.593-14.137-13.236-55.838 10.507-52.155 23.564 3.624 14.483 38.433 18.994 52.987 3.798 12.118 30.686 36.354 8.369 47.522-7.42 3.683-28.55-10.989-37.039-14.91 5.995 18.712 2.197 38.136 11.694 56.016 11.337 21.325 23.564 13.128 38.582 24.712 15.491 11.94 13.83 25.661 6.944 43.72-7.182 18.83-14.601 15.92-3.205 38.612 8.251 16.394 22.258 37.185 34.308 49.66 7.004 7.246 14.602 8.91 21.606 18.176 5.817 7.722 3.561 17.821 10.506 24.77 11.871 11.94 31.994 12.119 41.372 27.741 10.447 17.405-1.424 30.533 29.322 28.929 1.603 34.81 8.191 66.352 7.835 101.161 17.154 6.831 44.873-1.307 62.858-4.931 17.867 24.117 40.956 7.366 61.375 20.495 8.904 5.702 7.063 19.959 12.465 24.948 11.1 10.217 19.29 3.802 33.062 7.366 10.209 2.614 18.103 10.098 27.837 12.831 9.2 2.554 24.337-3.445 31.163 4.693 8.191 9.742-5.521 27.562 6.826 35.403 10.268 6.534 24.988-9.029 34.961-6.772 11.633 2.673 44.991 33.147 53.183 43.185 9.319 11.465 18.698 32.85 23.979 47.581 8.251 23.048 7.123 34.334 24.158 51.205 10.862 10.752.534 11.524 18.222 14.672 11.574 2.079 26.888-6.296 38.582-7.603 24.337-2.673 48.91 1.96 72.89-2.614 22.319-4.277 43.627-11.287 66.538-14.554 19.825-2.851 54.73-.653 72.3-10.098 19.05-10.158 20.77-33.147-6.77-28.869-2.2-14.672 7.6-34.929-3.32-45.085 15.19-20.791 20.71-35.463 23.08-60.888 1.07-11.167 1.55-23.523 7.07-32.909 5.4-9.267 20.59-14.791 23.56-22.751 4.57-12.356-2.73-17.88-8.31-24.771-3.56-4.455-13.71-2.316-16.62-6.237-5.4-7.188-.06-14.613-3.03-21.86-8.66-20.969-18.99-29.226-25.52-52.987.18 3.98.36 8.019.12 11.94" stroke="#fff" stroke-width="2" stroke-linecap="round" stroke-linejoin="round" opacity=".298"/><path d="M729.114 83.94c-8.568 23.381 11.5 31.586 27.561 46.867 4.759 4.529 5.213 12.01.204 16.535-10.772 9.732-51.615-4.425-49.025 8.403 2.676 13.249 37.207 31.786 38.764 33.054 13.666 11.133 18.117 39.375 10.59 54.859-5.356 11.018-40.866 7.304-52.036 3.635-73.148-24.027-40.187-21.162-122.355-28.623-6.29-.571-12.882-.864-18.923.98-6.223 1.899-6.025 9.689-3.937 13.9 6.919 13.956 37.892 37.628 29.557 55.973-2.558 5.629-8.551 9.184-11.25 14.747-2.113 4.357-1.879 9.502-2.819 14.253" stroke="#fff" stroke-width="2"/><path fill-rule="evenodd" clip-rule="evenodd" d="M573.5 326a6.5 6.5 0 100-13 6.5 6.5 0 000 13zm87.5 37a3 3 0 100-6 3 3 0 000 6zm64 108a3 3 0 100-6 3 3 0 000 6zM365 228a3 3 0 100-6 3 3 0 000 6zM729.5 91a6.5 6.5 0 100-13 6.5 6.5 0 000 13z" fill="#4AF6CD"/><path d="M398.41 310.976L396.17 322h-1.952l-2.032-9.232-2.048 9.232h-1.904l-2.24-11.024h1.488l1.776 9.696 2.128-9.696h1.616l2.176 9.696 1.84-9.696h1.392zm8.134 6.56c0 .245-.01.496-.032.752h-5.376c.064.928.299 1.611.704 2.048.406.437.928.656 1.568.656a3.43 3.43 0 001.12-.176 4.486 4.486 0 001.072-.56l.64.88c-.896.704-1.877 1.056-2.944 1.056-1.173 0-2.09-.384-2.752-1.152-.65-.768-.976-1.824-.976-3.168 0-.875.139-1.648.416-2.32.288-.683.694-1.216 1.216-1.6.534-.384 1.158-.576 1.872-.576 1.12 0 1.979.368 2.576 1.104.598.736.896 1.755.896 3.056zm-1.456-.432c0-.832-.165-1.467-.496-1.904-.33-.437-.826-.656-1.488-.656-1.205 0-1.861.885-1.968 2.656h3.952v-.096zm6.095-3.728c.576 0 1.093.08 1.552.24.459.16.896.4 1.312.72l-.624.928a5.02 5.02 0 00-1.104-.544 3.331 3.331 0 00-1.088-.176c-.48 0-.859.101-1.136.304a.92.92 0 00-.416.8c0 .341.128.608.384.8.267.192.741.379 1.424.56.939.235 1.637.555 2.096.96.469.405.704.96.704 1.664 0 .832-.325 1.467-.976 1.904-.64.437-1.424.656-2.352.656-1.28 0-2.341-.368-3.184-1.104l.784-.896c.715.544 1.504.816 2.368.816.555 0 .992-.112 1.312-.336a1.1 1.1 0 00.496-.944c0-.288-.059-.517-.176-.688-.117-.181-.32-.336-.608-.464-.288-.139-.709-.283-1.264-.432-.896-.235-1.547-.549-1.952-.944-.395-.395-.592-.896-.592-1.504 0-.437.128-.832.384-1.184.267-.363.629-.64 1.088-.832a3.909 3.909 0 011.568-.304zm9.437 8.24a3.238 3.238 0 01-1.888.576c-.715 0-1.275-.203-1.68-.608-.395-.416-.592-1.013-.592-1.792v-5.088h-1.472v-1.136h1.472v-1.904l1.472-.176v2.08h2l-.16 1.136h-1.84v5.024c0 .437.074.757.224.96.16.192.421.288.784.288.33 0 .704-.112 1.12-.336l.56.976zm8.559-10.832c.736 0 1.366.107 1.888.32.523.203 1.03.523 1.52.96l-.832.928a4.48 4.48 0 00-1.232-.72 3.37 3.37 0 00-1.28-.24c-.576 0-1.05.133-1.424.4-.373.267-.56.656-.56 1.168 0 .32.064.592.192.816.128.213.363.411.704.592.352.181.859.373 1.52.576.694.213 1.27.443 1.728.688.459.245.827.587 1.104 1.024.288.427.432.971.432 1.632 0 .64-.16 1.205-.48 1.696-.309.491-.762.875-1.36 1.152-.586.277-1.285.416-2.096.416-1.525 0-2.773-.475-3.744-1.424l.832-.928c.448.363.902.64 1.36.832.459.181.971.272 1.536.272.683 0 1.248-.165 1.696-.496.448-.341.672-.832.672-1.472 0-.363-.069-.661-.208-.896-.138-.245-.378-.464-.72-.656-.33-.192-.816-.384-1.456-.576-1.13-.341-1.957-.752-2.48-1.232-.522-.48-.784-1.131-.784-1.952 0-.555.144-1.051.432-1.488a3 3 0 011.232-1.024c.534-.245 1.136-.368 1.808-.368zm9.887 2.592c.768 0 1.365.229 1.792.688.437.459.656 1.088.656 1.888V322h-1.472v-5.84c0-.597-.117-1.019-.352-1.264-.224-.245-.555-.368-.992-.368-.437 0-.827.128-1.168.384-.341.256-.661.619-.96 1.088v6h-1.472v-11.808l1.472-.16v4.704c.661-.907 1.493-1.36 2.496-1.36zm8.575 0c1.184 0 2.101.395 2.752 1.184.661.789.992 1.861.992 3.216 0 .875-.149 1.648-.448 2.32-.299.661-.731 1.179-1.296 1.552-.565.363-1.237.544-2.016.544-1.184 0-2.107-.395-2.768-1.184-.661-.789-.992-1.861-.992-3.216 0-.875.149-1.643.448-2.304.299-.672.731-1.189 1.296-1.552.565-.373 1.243-.56 2.032-.56zm0 1.184c-1.461 0-2.192 1.077-2.192 3.232 0 2.144.725 3.216 2.176 3.216s2.176-1.077 2.176-3.232c0-2.144-.72-3.216-2.16-3.216zm9.84-1.184c.299 0 .576.032.832.096l-.272 1.44a3.032 3.032 0 00-.736-.096c-.523 0-.944.192-1.264.576-.32.384-.571.981-.752 1.792V322h-1.472v-8.432h1.264l.144 1.712c.224-.629.528-1.104.912-1.424.384-.32.832-.48 1.344-.48zm8.391 4.16c0 .245-.01.496-.032.752h-5.376c.064.928.299 1.611.704 2.048.406.437.928.656 1.568.656a3.43 3.43 0 001.12-.176 4.486 4.486 0 001.072-.56l.64.88c-.896.704-1.877 1.056-2.944 1.056-1.173 0-2.09-.384-2.752-1.152-.65-.768-.976-1.824-.976-3.168 0-.875.139-1.648.416-2.32.288-.683.694-1.216 1.216-1.6.534-.384 1.158-.576 1.872-.576 1.12 0 1.979.368 2.576 1.104.598.736.896 1.755.896 3.056zm-1.456-.432c0-.832-.165-1.467-.496-1.904-.33-.437-.826-.656-1.488-.656-1.205 0-1.861.885-1.968 2.656h3.952v-.096zm9.994-7.92v14.384h-.352v-14.384h.352zM493.237 322h-1.472l-.384-4.976c-.16-1.952-.25-3.451-.272-4.496l-2.384 8.224h-1.424l-2.512-8.24c0 1.333-.069 2.875-.208 4.624l-.368 4.864h-1.44l.912-11.024h2.048l2.32 8.016 2.208-8.016h2.064l.912 11.024zm8.197-1.968c0 .341.059.597.176.768a1.1 1.1 0 00.528.368l-.336 1.024c-.437-.053-.789-.176-1.056-.368-.266-.192-.464-.491-.592-.896-.565.843-1.402 1.264-2.512 1.264-.832 0-1.488-.235-1.968-.704s-.72-1.083-.72-1.84c0-.896.32-1.584.96-2.064.651-.48 1.568-.72 2.752-.72h1.296v-.624c0-.597-.144-1.024-.432-1.28-.288-.256-.73-.384-1.328-.384-.618 0-1.376.149-2.272.448l-.368-1.072c1.046-.384 2.016-.576 2.912-.576.992 0 1.734.245 2.224.736.491.48.736 1.168.736 2.064v3.856zm-3.456 1.056c.843 0 1.504-.437 1.984-1.312v-1.936h-1.104c-1.557 0-2.336.576-2.336 1.728 0 .501.123.88.368 1.136.246.256.608.384 1.088.384zm8.003 1.104c-.544 0-.976-.16-1.296-.48-.309-.331-.464-.789-.464-1.376v-10.16l1.472-.176v10.304c0 .235.038.405.112.512.086.107.224.16.416.16.203 0 .384-.032.544-.096l.384 1.024a2.398 2.398 0 01-1.168.288zm4.48-8.624V322h-1.472v-8.432h1.472zm-.752-4.048c.309 0 .56.096.752.288a.977.977 0 01.288.72.977.977 0 01-.288.72c-.192.181-.443.272-.752.272-.299 0-.544-.091-.736-.272a.977.977 0 01-.288-.72c0-.288.096-.528.288-.72a.996.996 0 01.736-.288zm7.651 3.856c.96 0 1.723.389 2.288 1.168.566.768.848 1.845.848 3.232 0 .875-.133 1.648-.4 2.32-.266.661-.65 1.179-1.152 1.552-.501.363-1.088.544-1.76.544-.885 0-1.632-.373-2.24-1.12l-.144.928h-1.296v-11.824l1.472-.176v4.624c.608-.832 1.403-1.248 2.384-1.248zm-.528 7.648c.651 0 1.158-.261 1.52-.784.374-.533.56-1.355.56-2.464 0-1.141-.17-1.963-.512-2.464-.341-.512-.826-.768-1.456-.768-.746 0-1.402.437-1.968 1.312v4.032c.224.352.496.629.816.832a1.96 1.96 0 001.04.304zm12.444.976h-1.264l-.112-1.312c-.32.523-.688.907-1.104 1.152-.416.235-.922.352-1.52.352-.736 0-1.312-.224-1.728-.672-.416-.448-.624-1.083-.624-1.904v-6.048h1.472v5.888c0 .576.102.987.304 1.232.203.235.534.352.992.352.822 0 1.526-.485 2.112-1.456v-6.016h1.472V322zm3.425-2.032c.32 0 .587.107.8.32.213.213.32.475.32.784 0 .331-.096.709-.288 1.136l-1.072 2.448h-1.056l.64-2.656a1.22 1.22 0 01-.336-.4 1.228 1.228 0 01-.112-.528c0-.309.107-.571.32-.784.213-.213.475-.32.784-.32zm11.63-9.184c.661 0 1.216.085 1.664.256.459.171.923.448 1.392.832l-.832.976c-.672-.544-1.381-.816-2.128-.816-.917 0-1.659.352-2.224 1.056-.555.704-.832 1.835-.832 3.392 0 1.515.277 2.635.832 3.36.555.715 1.291 1.072 2.208 1.072.469 0 .88-.08 1.232-.24.352-.16.725-.384 1.12-.672l.752.96c-.341.352-.779.645-1.312.88s-1.147.352-1.84.352c-.896 0-1.696-.219-2.4-.656-.693-.448-1.237-1.099-1.632-1.952-.384-.864-.576-1.899-.576-3.104s.203-2.235.608-3.088c.405-.864.955-1.515 1.648-1.952a4.262 4.262 0 012.32-.656zM555.3 322l-.832-2.768h-4.176L549.46 322h-1.536l3.536-11.024h1.92L556.9 322h-1.6zm-4.64-4h3.44l-1.712-5.76-1.728 5.76zm47.718-242.216c.661 0 1.216.085 1.664.256.459.17.923.448 1.392.832l-.832.976c-.672-.544-1.381-.816-2.128-.816-.917 0-1.659.352-2.224 1.056-.555.704-.832 1.835-.832 3.392 0 1.515.277 2.635.832 3.36.555.715 1.291 1.072 2.208 1.072.469 0 .88-.08 1.232-.24.352-.16.725-.384 1.12-.672l.752.96c-.341.352-.779.645-1.312.88s-1.147.352-1.84.352c-.896 0-1.696-.219-2.4-.656-.693-.448-1.237-1.099-1.632-1.952-.384-.864-.576-1.899-.576-3.104s.203-2.235.608-3.088c.405-.864.955-1.515 1.648-1.952a4.26 4.26 0 012.32-.656zM609.401 87h-1.264l-.112-1.312c-.32.523-.688.907-1.104 1.152-.416.235-.922.352-1.52.352-.736 0-1.312-.224-1.728-.672-.416-.448-.624-1.083-.624-1.904v-6.048h1.472v5.888c0 .576.102.987.304 1.232.203.235.534.352.992.352.822 0 1.526-.485 2.112-1.456v-6.016h1.472V87zm6.705-8.624c.299 0 .576.032.832.096l-.272 1.44a3.032 3.032 0 00-.736-.096c-.523 0-.944.192-1.264.576-.32.384-.571.981-.752 1.792V87h-1.472v-8.432h1.264l.144 1.712c.224-.63.528-1.104.912-1.424.384-.32.832-.48 1.344-.48zm6.172 0c.298 0 .576.032.832.096l-.272 1.44a3.038 3.038 0 00-.736-.096c-.523 0-.944.192-1.264.576-.32.384-.571.981-.752 1.792V87h-1.472v-8.432h1.264l.144 1.712c.224-.63.528-1.104.912-1.424.384-.32.832-.48 1.344-.48zm8.391 4.16c0 .245-.01.496-.032.752h-5.376c.064.928.299 1.61.704 2.048.406.437.928.656 1.568.656a3.43 3.43 0 001.12-.176 4.496 4.496 0 001.072-.56l.64.88c-.896.704-1.877 1.056-2.944 1.056-1.173 0-2.09-.384-2.752-1.152-.65-.768-.976-1.824-.976-3.168 0-.875.139-1.648.416-2.32.288-.683.694-1.216 1.216-1.6.534-.384 1.158-.576 1.872-.576 1.12 0 1.979.368 2.576 1.104.598.736.896 1.755.896 3.056zm-1.456-.432c0-.832-.165-1.467-.496-1.904-.33-.437-.826-.656-1.488-.656-1.205 0-1.861.885-1.968 2.656h3.952v-.096zm7.775-3.728c.768 0 1.365.23 1.792.688.437.459.656 1.088.656 1.888V87h-1.472v-5.84c0-.597-.112-1.019-.336-1.264-.224-.245-.555-.368-.992-.368a1.92 1.92 0 00-1.184.384c-.341.256-.661.624-.96 1.104V87h-1.472v-8.432h1.264l.128 1.248c.299-.448.667-.8 1.104-1.056a2.916 2.916 0 011.472-.384zm9.663 8.24a3.238 3.238 0 01-1.888.576c-.715 0-1.275-.203-1.68-.608-.395-.416-.592-1.013-.592-1.792v-5.088h-1.472v-1.136h1.472v-1.904l1.472-.176v2.08h2l-.16 1.136h-1.84v5.024c0 .437.075.757.224.96.16.192.421.288.784.288.331 0 .704-.112 1.12-.336l.56.976zm7.36-10.64v9.696h4.528L658.363 87h-5.872V75.976h1.52zm9.13 2.4c1.184 0 2.101.395 2.752 1.184.661.79.992 1.861.992 3.216 0 .875-.149 1.648-.448 2.32-.299.661-.731 1.179-1.296 1.552-.565.363-1.237.544-2.016.544-1.184 0-2.107-.395-2.768-1.184-.661-.79-.992-1.861-.992-3.216 0-.875.149-1.643.448-2.304.299-.672.731-1.19 1.296-1.552.565-.373 1.243-.56 2.032-.56zm0 1.184c-1.461 0-2.192 1.077-2.192 3.232 0 2.144.725 3.216 2.176 3.216s2.176-1.077 2.176-3.232c0-2.144-.72-3.216-2.16-3.216zm9.248-1.184c.501 0 .96.075 1.376.224a3.71 3.71 0 011.2.688l-.704.928a3.356 3.356 0 00-.88-.464 2.566 2.566 0 00-.928-.16c-.683 0-1.216.272-1.6.816-.373.544-.56 1.35-.56 2.416 0 1.067.187 1.856.56 2.368.373.501.907.752 1.6.752.331 0 .635-.048.912-.144.277-.107.587-.272.928-.496l.672.96c-.768.619-1.627.928-2.576.928-1.141 0-2.043-.384-2.704-1.152-.651-.768-.976-1.83-.976-3.184 0-.896.149-1.68.448-2.352.299-.672.72-1.195 1.264-1.568.555-.373 1.211-.56 1.968-.56zm10.092 6.656c0 .341.059.597.176.768a1.1 1.1 0 00.528.368l-.336 1.024c-.437-.053-.789-.176-1.056-.368-.266-.192-.464-.49-.592-.896-.565.843-1.402 1.264-2.512 1.264-.832 0-1.488-.235-1.968-.704-.48-.47-.72-1.083-.72-1.84 0-.896.32-1.584.96-2.064.651-.48 1.568-.72 2.752-.72h1.296v-.624c0-.597-.144-1.024-.432-1.28-.288-.256-.73-.384-1.328-.384-.618 0-1.376.15-2.272.448l-.368-1.072c1.046-.384 2.016-.576 2.912-.576.992 0 1.734.245 2.224.736.491.48.736 1.168.736 2.064v3.856zm-3.456 1.056c.843 0 1.504-.437 1.984-1.312V82.84h-1.104c-1.557 0-2.336.576-2.336 1.728 0 .501.123.88.368 1.136.246.256.608.384 1.088.384zm10.735.528a3.236 3.236 0 01-1.888.576c-.714 0-1.274-.203-1.68-.608-.394-.416-.592-1.013-.592-1.792v-5.088h-1.472v-1.136h1.472v-1.904l1.472-.176v2.08h2l-.16 1.136h-1.84v5.024c0 .437.075.757.224.96.16.192.422.288.784.288.331 0 .704-.112 1.12-.336l.56.976zm2.998-8.048V87h-1.472v-8.432h1.472zm-.752-4.048c.309 0 .56.096.752.288a.977.977 0 01.288.72.977.977 0 01-.288.72c-.192.181-.443.272-.752.272-.299 0-.544-.09-.736-.272a.977.977 0 01-.288-.72c0-.288.096-.528.288-.72a.996.996 0 01.736-.288zm6.963 3.856c1.184 0 2.102.395 2.752 1.184.662.79.992 1.861.992 3.216 0 .875-.149 1.648-.448 2.32-.298.661-.73 1.179-1.296 1.552-.565.363-1.237.544-2.016.544-1.184 0-2.106-.395-2.768-1.184-.661-.79-.992-1.861-.992-3.216 0-.875.15-1.643.448-2.304.299-.672.731-1.19 1.296-1.552.566-.373 1.243-.56 2.032-.56zm0 1.184c-1.461 0-2.192 1.077-2.192 3.232 0 2.144.726 3.216 2.176 3.216 1.451 0 2.176-1.077 2.176-3.232 0-2.144-.72-3.216-2.16-3.216zm10.144-1.184c.768 0 1.365.23 1.792.688.437.459.656 1.088.656 1.888V87h-1.472v-5.84c0-.597-.112-1.019-.336-1.264-.224-.245-.555-.368-.992-.368a1.92 1.92 0 00-1.184.384c-.341.256-.661.624-.96 1.104V87h-1.472v-8.432h1.264l.128 1.248c.299-.448.667-.8 1.104-1.056a2.916 2.916 0 011.472-.384z" fill="#fff"/></svg>