<svg width="11" height="14" fill="none" xmlns="http://www.w3.org/2000/svg"><path fill-rule="evenodd" clip-rule="evenodd" d="M5.434.295c1.225 0 2.415.414 3.352 1.165a5.358 5.358 0 012.034 3.926 5.401 5.401 0 01-1.57 4.109l-3.58 3.534a.377.377 0 01-.519 0l-3.53-3.532A5.4 5.4 0 01.049 5.386 5.358 5.358 0 012.081 1.46 5.371 5.371 0 015.434.295zm-2.407 5.39A2.409 2.409 0 005.434 8.09 2.408 2.408 0 007.84 5.684a2.409 2.409 0 00-2.406-2.406 2.409 2.409 0 00-2.407 2.406z" fill="#fff"/><path d="M5.434 4.512a1.173 1.173 0 10.001 2.346 1.173 1.173 0 00-.001-2.346z" fill="#fff"/></svg>