<svg width="25" height="52" fill="none" xmlns="http://www.w3.org/2000/svg"><g filter="url(#filter0_d_0_2964)"><path fill-rule="evenodd" clip-rule="evenodd" d="M5 20.583C5 7.503 10.422.445 12.639.444c2.217.001 7.639 7.058 7.639 20.14 0 13.216-4.743 22.176-4.945 22.551l-.196.365h-4.996l-.197-.365C9.744 42.76 5 33.8 5 20.583zm6.945-18.295zm0 0v21.768h1.389V2.288c1.777 1.587 5.555 7.36 5.555 18.295 0 3.65-.384 6.98-.93 9.887-.804-1.144-2.282-2.701-4.974-4.24-6.547-3.74-6.467-8.878-6.462-9.095h-.002C7.204 8.42 10.365 3.7 11.945 2.288zm-5.42 21.936a51.331 51.331 0 01-.113-2.526c.993 1.846 2.755 3.951 5.883 5.74 4.446 2.54 5.207 5.054 5.226 5.117a52.613 52.613 0 01-1.087 4.023c-.585-1.036-1.616-2.31-3.437-3.396-5.485-3.265-6.35-8.003-6.472-8.958zm6.809 17.887h.96a38.37 38.37 0 001.47-3.542c-.136-.578-.785-2.59-3.48-4.194-2.449-1.46-4.06-3.198-5.124-4.826 1.137 6.661 3.2 11.274 3.825 12.562h.96V37.25h1.389v4.861z" fill="#fff"/><path d="M12.639.444V.32v.125zm2.694 42.691l.11.06-.11-.06zm-.196.365v.125h.075l.035-.066-.11-.06zm-4.996 0l-.11.059.035.066h.075V43.5zm-.197-.365l-.11.06.11-.06zm2-40.847l-.04-.118-.084.029v.09h.125zm0 0l.084.093-.123-.211.04.118zm0 21.768h-.124v.125h.125v-.125zm1.39 0v.125h.125v-.125h-.125zm0-21.768l.083-.093-.208-.186v.28h.125zm4.625 28.182l-.103.072.17.243.055-.291-.122-.024zm-4.974-4.24l-.062.11.062-.11zm-6.462-9.095l.125.003.003-.128h-.128v.125zm-.002 0l-.124-.01-.01.135h.134v-.125zm-.109 4.563l.11-.059-.235.062.125-.003zm.113 2.526l-.125.01v.006l.125-.016zm5.77 3.213l-.062.109.062-.108zm5.226 5.118l-.12.036.12-.036zm0 0l.122.029.007-.033-.01-.032-.119.037zm-1.087 4.023l-.108.062.141.25.087-.274-.12-.038zm-3.437-3.396l.064-.107-.064.107zm1.297 8.93v.124h.215l-.107-.187-.108.062zm-.96 0h-.125v.124h.125v-.125zm.96-.001l-.113-.054-.029.059.033.057.108-.062zm1.47-3.542l.117.043.013-.035-.008-.036-.122.028zm-3.48-4.194l-.063.107.064-.107zM7.16 29.549l.104-.069-.227.09.123-.021zm3.825 12.562l-.113.055.034.07h.079v-.125zm.96 0v.125h.125v-.125h-.125zm0-4.861v-.125h-.125v.125h.125zm1.389 0h.125v-.125h-.125v.125zM12.639.32c-.309 0-.659.122-1.03.347-.372.225-.774.56-1.19.999-.83.878-1.723 2.18-2.544 3.889-1.641 3.417-3 8.47-3 15.028h.25c0-6.523 1.352-11.54 2.976-14.92.812-1.691 1.69-2.97 2.5-3.825.404-.428.79-.746 1.138-.958.35-.212.654-.31.9-.31V.32zm7.764 20.263c0-6.557-1.36-11.61-3-15.029-.821-1.708-1.713-3.01-2.544-3.888-.416-.439-.818-.774-1.19-1-.372-.224-.722-.346-1.03-.347v.25c.246 0 .55.1.9.311.348.212.734.53 1.138.958.81.854 1.688 2.134 2.5 3.825 1.624 3.38 2.976 8.396 2.976 14.92h.25zm-4.96 22.611c.207-.384 4.96-9.365 4.96-22.61h-.25c0 13.187-4.734 22.127-4.93 22.492l.22.118zm-.196.365l.196-.365-.22-.118-.196.364.22.119zm-5.106.066h4.996v-.25h-4.996v.25zm-.307-.43l.197.364.22-.118-.196-.365-.22.118zM4.875 20.582c0 13.246 4.753 22.227 4.96 22.611l.22-.118c-.197-.366-4.93-9.305-4.93-22.493h-.25zM11.82 2.288h.25-.25zm.085-.118l.08.237-.08-.237zm.123.211l-.167-.186.167.186zm.042 21.675V2.288h-.25v21.768h.25zm1.264-.125h-1.39v.25h1.39v-.25zm-.125-21.643v21.768h.25V2.288h-.25zm5.805 18.295c0-10.961-3.786-16.772-5.597-18.388l-.167.186c1.745 1.558 5.514 7.293 5.514 18.202h.25zm-.933 9.91c.549-2.914.933-6.252.933-9.91h-.25c0 3.64-.383 6.963-.928 9.864l.245.047zm-5.158-4.154c2.677 1.53 4.14 3.075 4.933 4.203l.205-.143c-.815-1.16-2.307-2.73-5.014-4.277l-.124.217zm-6.525-9.207c-.006.244-.076 5.435 6.525 9.207l.124-.217c-6.493-3.71-6.404-8.794-6.4-8.984l-.249-.006zm.123.128h.002v-.25h-.002v.25zm5.34-15.065c-1.61 1.438-4.78 6.19-5.464 14.93l.249.02c.68-8.693 3.832-13.379 5.382-14.764l-.167-.186zM6.287 21.701c.02.86.054 1.707.113 2.532l.25-.018a51.216 51.216 0 01-.113-2.52l-.25.006zm6.07 5.628c-3.107-1.777-4.853-3.865-5.835-5.69l-.22.119c1.004 1.866 2.783 3.988 5.931 5.788l.124-.217zm5.284 5.19c-.028-.093-.81-2.632-5.284-5.19l-.124.217c4.417 2.524 5.158 5.011 5.168 5.045l.24-.072zm0 0l-.24.073.24-.073zm-1.087 4.097a52.83 52.83 0 001.089-4.032l-.244-.056a52.572 52.572 0 01-1.084 4.013l.239.075zm-3.621-3.326c1.8 1.073 2.817 2.33 3.393 3.35l.217-.123c-.595-1.054-1.64-2.345-3.482-3.442l-.128.215zM6.4 24.24c.124.975 1.002 5.757 6.532 9.05l.128-.215c-5.439-3.238-6.293-7.932-6.412-8.867l-.248.032zm7.893 17.746h-.96v.25h.96v-.25zm-.109.187l.217-.124-.217.124zm1.461-3.646a37.723 37.723 0 01-1.465 3.53l.225.108c.277-.572.838-1.795 1.475-3.553l-.235-.085zm-3.425-4.045c2.658 1.583 3.291 3.562 3.421 4.116l.244-.057c-.142-.603-.807-2.648-3.537-4.273l-.128.214zm-5.166-4.865c1.074 1.643 2.699 3.395 5.166 4.865l.128-.215c-2.432-1.449-4.03-3.173-5.085-4.787l-.209.137zm4.042 12.44c-.621-1.281-2.68-5.882-3.814-12.53l-.246.043c1.14 6.676 3.206 11.3 3.835 12.596l.225-.11zm.848-.07h-.96v.25h.96v-.25zm-.125-4.737v4.861h.25V37.25h-.25zm1.514-.125h-1.39v.25h1.39v-.25zm.125 4.986V37.25h-.25v4.861h.25z" fill="#000"/></g><defs><filter id="filter0_d_0_2964" x=".875" y=".319" width="23.528" height="51.305" filterUnits="userSpaceOnUse" color-interpolation-filters="sRGB"><feFlood flood-opacity="0" result="BackgroundImageFix"/><feColorMatrix in="SourceAlpha" values="0 0 0 0 0 0 0 0 0 0 0 0 0 0 0 0 0 0 127 0" result="hardAlpha"/><feOffset dy="4"/><feGaussianBlur stdDeviation="2"/><feColorMatrix values="0 0 0 0 0 0 0 0 0 0 0 0 0 0 0 0 0 0 0.25 0"/><feBlend in2="BackgroundImageFix" result="effect1_dropShadow_0_2964"/><feBlend in="SourceGraphic" in2="effect1_dropShadow_0_2964" result="shape"/></filter></defs></svg>