<svg width="52" height="33" fill="none" xmlns="http://www.w3.org/2000/svg"><path fill-rule="evenodd" clip-rule="evenodd" d="M49.75 22.276v2.747c.57.116 1 .616 1 1.212v.987c0 .6-.43 1.098-1 1.214v.025h-6.565c-.363 2.24-2.322 3.958-4.686 3.958-2.363 0-4.322-1.718-4.683-3.958H16.435c-.363 2.24-2.322 3.958-4.686 3.958-2.363 0-4.324-1.72-4.685-3.958H3.249l-.748.002a1.247 1.247 0 01-1.252-1.239v-.988c0-.684.563-1.238 1.252-1.238h.748V13.867c0-3.412 2.805-6.187 6.252-6.187l5.77-.004V5.703C9.185 5.129 4.029 4.056 2.468 2.512a.733.733 0 01-.134-.868.752.752 0 01.796-.387c4.977.882 12.715 1 19.626 1a1029.147 1029.147 0 005.345-.014c.914-.003 1.8-.006 2.649-.006l6.437.002h.002c4.358 0 7.041-.029 10.522-.197a.758.758 0 01.757.537.74.74 0 01-.353.853c-.502.278-1.127.537-1.867.777V5.71a1.7 1.7 0 01-.963 1.549 1.773 1.773 0 01-.793.19c-.363 0-.725-.115-1.037-.345l-2.42-1.776c-3.082.444-6.898.726-11.285.827v1.527l5.248-.002c3.344 0 6.428 1.107 8.904 2.969l.205.158a14.658 14.658 0 014.66 6.24l.006.012.014.033.043.113.037.096.299.767h-.043c.406 1.334.627 2.747.627 4.208zM36 16.586h10.932a13.23 13.23 0 00-3.553-4.453H36a.253.253 0 00-.25.247v3.958c0 .134.115.248.25.248zM44.75 5.71a.23.23 0 01-.139.223.232.232 0 01-.261-.024l-1.258-.921a33.19 33.19 0 001.658-.358v1.08zM26.09 3.736c-1.086.003-2.2.007-3.332.007-4.44 0-9.22-.05-13.422-.32 4.035.755 9.838 1.288 16.664 1.288 6.273 0 11.76-.363 15.742-1.003-1.357.015-2.824.021-4.55.021h-.002l-6.44-.006c-1.168 0-2.404.004-3.69.01l-.97.003zm-9.319 2.1c3.01.238 6.186.36 9.229.36.764 0 1.514-.006 2.25-.016v1.5H16.771V5.836zM8.5 27.719c0 1.774 1.457 3.216 3.25 3.216S15 29.493 15 27.72c0-1.774-1.457-3.216-3.25-3.216S8.5 25.945 8.5 27.719zm30 3.216c-1.793 0-3.25-1.442-3.25-3.216 0-1.774 1.457-3.216 3.25-3.216s3.25 1.442 3.25 3.216c0 1.774-1.457 3.216-3.25 3.216zm0-7.916c2.363 0 4.324 1.718 4.685 3.958h6.065v-.495h-4.5v-1.484h3.5v-2.72c0-1.472-.25-2.885-.703-4.207H36c-.965 0-1.75-.777-1.75-1.732V12.38c0-.955.785-1.732 1.75-1.732h5.111a13.294 13.294 0 00-6.113-1.485H9.502c-2.621 0-4.752 2.111-4.752 4.703v2.72h7.535v1.484H4.75v6.927h1v1.484h-3v.495h4.314c.364-2.24 2.323-3.958 4.686-3.958s4.324 1.718 4.685 3.958h17.38c.363-2.24 2.322-3.958 4.685-3.958z" fill="#fff"/><path d="M49.75 25.023l.084.288.216-.063v-.225h-.3zm0 0l-.084-.288.024.582.06-.294zm0 3.413l-.06-.294-.24.049v.245h.3zm0 .025v.3h.3v-.3h-.3zm-6.565 0v-.3h-.255l-.041.252.296.048zm-9.37 0l.297-.048-.04-.252h-.256v.3zm-17.38 0v-.3h-.255l-.041.252.296.048zm-9.371 0l.296-.048-.04-.252h-.256v.3zm-3.815 0v-.3.3zm-.748.002v.3h.001v-.3zm.748-3.465v.3h.3v-.3h-.3zM9.501 7.68v.3-.3zm5.77-.004v.3h.3v-.3h-.3zm0-1.973h.3V5.43l-.272-.026-.028.299zM2.468 2.512l.211-.214-.21.214zm-.134-.868l-.265-.141.265.14zm.796-.387l-.052.296.052-.296zm23.924.99v-.3.3zm1.047-.004v.3-.3zm0 0l-.001-.3.001.3zm0 0v-.3.3zm0 0l.002.3-.001-.3zm0 0v-.3.3zm2.649-.006v-.3.3zm6.437.002v.3-.3zm10.524-.197l-.012-.3h-.003l.015.3zm.757.537l.289-.083-.289.083zm-.353.853l.145.262-.145-.262zm-1.867.777l-.093-.286-.207.067v.219h.3zm-.963 3.05l.134.268-.134-.268zm-1.83-.155l.178-.242-.178.242zm-2.42-1.776l.177-.242-.099-.073-.121.018.043.297zm-11.285.827l-.007-.3-.293.007v.293h.3zm0 1.527h-.3v.3h.3v-.3zm5.248-.002v-.3.3zm8.904 2.969l.184-.238-.003-.002-.18.24zm.205.158l.185-.237h-.001l-.184.237zm4.66 6.24l-.279.11.005.013.007.013.268-.135zm.006.012l.277-.115-.004-.01-.005-.01-.268.136zm.014.033l.283-.1-.003-.008-.003-.007-.277.115zm.043.113l-.279.11v.001l.279-.111zm0 0l.28-.108-.001-.004-.279.112zm0 0l-.28.108.002.003.278-.111zm0 0l.28-.108-.001-.003-.279.111zm0 0l-.28.109.002.003.278-.112zm0 0l.28-.11-.001-.001-.279.111zm.037.096l-.282.103.003.006.28-.109zm.299.767v.3h.439l-.16-.408-.279.108zm-.043 0v-.3h-.405l.118.388.287-.088zm-2.191-1.482v.3h.48l-.21-.432-.27.132zm-3.553-4.453l.19-.233-.084-.067h-.106v.3zm1.232-6.2l-.133-.27.133.27zm.139-.223h-.3.3zm-.4.2l.178-.242h-.001l-.177.241zm-1.258-.923l-.056-.294-.678.129.556.407.178-.242zm1.658-.357h.3v-.382l-.371.09.071.292zm-18.66-.894l.002.3-.001-.3zm0 0v-.3.3zm-3.332.007l-.027-.299.027.599v-.3zm0 0l.028.299-.028-.6v.3zm-13.422-.32l.02-.299-.075.595.055-.295zm32.406.285l.048.296-.051-.596.003.3zm-4.552.021v.3-.3zm-6.44-.006v-.3.3zm-3.69.01l.002.3-.001-.3zM16.773 5.836l.023-.3-.324-.025v.325h.3zm11.478.344h.3v-.304l-.304.004.004.3zm0 1.5v.3h.3v-.3h-.3zm-11.479 0h-.3v.3h.3v-.3zm26.414 19.297l-.296.048.041.252h.255v-.3zm6.065 0v.3h.3v-.3h-.3zm0-.495h.3v-.3h-.3v.3zm-4.5 0h-.3v.3h.3v-.3zm0-1.484v-.3h-.3v.3h.3zm3.5 0v.3h.3v-.3h-.3zm-.703-6.927l.284-.098-.07-.202h-.214v.3zm-6.436-7.422v.3l.138-.567-.138.267zM4.75 16.586h-.3v.3h.3v-.3zm7.535 0h.3v-.3h-.3v.3zm0 1.485v.3h.3v-.3h-.3zm-7.535 0v-.3h-.3v.3h.3zm0 6.927h-.3v.3h.3v-.3zm1 0h.3v-.3h-.3v.3zm0 1.484v.3h.3v-.3h-.3zm-3 0v-.3h-.3v.3h.3zm0 .495h-.3v.3h.3v-.3zm4.314 0v.3h.256l.04-.252-.296-.048zm9.371 0l-.296.048.04.252h.256v-.3zm17.38 0v.3h.255l.04-.252-.296-.048zm16.235-1.954v-2.747h-.6v2.747h.6zm-.217.288l-.167-.576.167.576zm1.217.924c0-.744-.536-1.363-1.24-1.506l-.12.588c.436.088.76.47.76.918h.6zm0 .987v-.987h-.6v.987h.6zm-1.24 1.508a1.543 1.543 0 001.24-1.508h-.6a.943.943 0 01-.76.92l.12.588zm.24-.269v-.025h-.6v.025h.6zm-6.865.3h6.565v-.6h-6.565v.6zM38.5 32.72c2.512 0 4.595-1.826 4.982-4.21l-.592-.096c-.34 2.096-2.174 3.706-4.39 3.706v.6zm-4.98-4.21c.385 2.384 2.47 4.21 4.98 4.21v-.6c-2.215 0-4.049-1.61-4.387-3.706l-.592.096zm-17.084.252h17.38v-.6h-17.38v.6zM11.75 32.72c2.512 0 4.595-1.826 4.982-4.21l-.592-.096c-.34 2.096-2.175 3.706-4.39 3.706v.6zm-4.981-4.21c.384 2.383 2.47 4.21 4.981 4.21v-.6c-2.215 0-4.051-1.612-4.389-3.706l-.592.096zm-3.519.252h3.815v-.6H3.249v.6zm-.747.002l.748-.002-.001-.6-.748.002.001.6zM.95 27.224c0 .85.698 1.539 1.552 1.539v-.6a.947.947 0 01-.952-.939h-.6zm0-.988v.988h.6v-.988h-.6zm1.552-1.538c-.852 0-1.552.685-1.552 1.538h.6c0-.515.425-.938.952-.938v-.6zm.748 0h-.748v.6h.748v-.6zm-.3-10.831v11.13h.6v-11.13h-.6zM9.501 7.38c-3.61 0-6.552 2.907-6.552 6.487h.6c0-3.243 2.668-5.887 5.952-5.887v-.6zm5.77-.004L9.5 7.38v.6l5.77-.004v-.6zm-.3-1.673v1.973h.6V5.703h-.6zM2.257 2.725c.431.426 1.088.801 1.9 1.134.818.334 1.815.635 2.946.904 2.264.537 5.09.95 8.14 1.238l.056-.597c-3.035-.286-5.83-.696-8.057-1.225-1.113-.264-2.078-.557-2.857-.876-.784-.32-1.356-.659-1.706-1.005l-.422.427zm-.189-1.221c-.214.405-.137.9.19 1.222l.42-.429a.433.433 0 01-.08-.513l-.53-.28zM3.183.962a1.052 1.052 0 00-1.114.54l.53.283a.452.452 0 01.479-.232l.105-.591zm19.573.994c-6.917 0-14.628-.118-19.573-.994l-.105.59c5.008.887 12.774 1.004 19.678 1.004v-.6zm4.297-.01c-1.386.007-2.83.01-4.297.01v.6c1.469 0 2.913-.003 4.3-.01l-.003-.6zm1.047-.003l-1.047.004.002.6 1.047-.004-.002-.6zm0 0l.002.6-.002-.6zm0 0l.002.6-.002-.6zm0 0l.002.6-.002-.6zm0 0l.002.6-.002-.6zm0 0l.002.6-.001-.6zm0 0l.003.6-.002-.6zm2.65-.006c-.85 0-1.736.003-2.65.006l.003.6c.913-.003 1.798-.006 2.647-.006v-.6zm6.437.002l-6.437-.002v.6l6.437.002v-.6zm.002 0h-.002v.6h.002v-.6zm10.507-.197c-3.473.168-6.151.197-10.507.197v.6c4.36 0 7.048-.029 10.536-.197l-.029-.6zm1.06.754a1.058 1.058 0 00-1.057-.754l.023.6a.458.458 0 01.458.32l.577-.166zm-.495 1.198a1.04 1.04 0 00.496-1.198l-.577.167a.44.44 0 01-.21.506l.29.525zm-1.92.8c.751-.244 1.395-.51 1.92-.8l-.292-.525c-.48.266-1.085.518-1.814.754l.185.571zm.207 1.216v-1.5h-.6v1.5h.6zm-1.13 1.817a2 2 0 001.13-1.817h-.6a1.4 1.4 0 01-.797 1.28l.268.537zm-.926.223c.316 0 .63-.076.927-.223l-.268-.537a1.47 1.47 0 01-.66.16v.6zm-1.215-.404c.363.267.787.404 1.215.404v-.6c-.299 0-.598-.095-.86-.288l-.355.484zm-2.42-1.776l2.42 1.776.355-.484-2.42-1.776-.355.484zm-11.1.885c4.394-.1 8.223-.384 11.32-.83l-.085-.594c-3.066.442-6.87.724-11.249.824l.014.6zm.293 1.227V6.155h-.6v1.527h.6zm4.948-.302l-5.248.002v.6l5.248-.002v-.6zm9.085 3.029a15.074 15.074 0 00-9.085-3.03v.6a14.47 14.47 0 018.724 2.91l.36-.48zm.208.16l-.205-.158-.367.475.205.159.367-.475zm4.756 6.37a14.959 14.959 0 00-4.755-6.369l-.369.474a14.36 14.36 0 014.565 6.113l.56-.218zm-.006-.015l-.006-.011-.535.27.006.012.535-.27zm.023.053l-.014-.033-.554.23.014.034.554-.23zm.045.117a3.11 3.11 0 01-.04-.102l-.565.2c.016.045.033.087.047.123l.558-.22zm0 0l-.558.222.558-.223zm0 .003l-.559.216.56-.216zm0-.003l-.557.222.557-.222zm.001.003l-.56.216.56-.216zm-.001-.003l-.557.223.557-.223zm.04.104a4.21 4.21 0 00-.04-.103l-.558.22.034.089.564-.206zm.297.762l-.3-.768-.558.218.298.767.56-.217zm-.323.408h.043v-.6h-.043v.6zm.927 3.908c0-1.491-.225-2.934-.64-4.295l-.574.175a14.12 14.12 0 01.614 4.12h.6zm-3.118-5.99H36v.6h10.932v-.6zm0 0v.6-.6zm-3.742-3.92a12.93 12.93 0 013.473 4.352l.538-.264a13.53 13.53 0 00-3.633-4.554l-.378.466zm-7.19.067h7.38v-.6H36v.6zm.05-.053a.055.055 0 01-.014.04.05.05 0 01-.036.013v-.6a.553.553 0 00-.55.547h.6zm0 3.958V12.38h-.6v3.958h.6zm-.05-.052a.05.05 0 01.036.013.055.055 0 01.014.04h-.6c0 .302.253.547.55.547v-.6zm8.744-10.084A.547.547 0 0044.971 6a.544.544 0 00.079-.29h-.6l.001-.004a.085.085 0 01.026-.041c.004-.004.005-.004.001-.002l.266.538zm-.572-.051c.076.056.17.1.278.11a.55.55 0 00.294-.06l-.266-.537c-.004.002-.004.001.001 0a.082.082 0 01.048.004c.005.002.005.003 0 0l-.355.483zm-1.258-.922l1.258.922.355-.484-1.258-.921-.355.483zm1.765-.89c-.51.124-1.058.243-1.643.354l.112.59a33.472 33.472 0 001.673-.362l-.142-.583zm.371 1.371V4.63h-.6v1.08h.6zM26.092 4.036l-.002-.6.002.6zm-3.334.007c1.132 0 2.247-.004 3.334-.007l-.002-.6c-1.087.003-2.201.007-3.332.007v.6zm-.027-.599l.054.598-.054-.598zm-13.414.28c4.212.269 9.001.319 13.441.319v-.6c-4.438 0-9.211-.05-13.402-.319l-.039.6zM26 4.41c-6.812 0-12.596-.532-16.608-1.282l-.11.59C13.338 4.477 19.16 5.01 26 5.01v-.6zm15.695-1c-3.961.637-9.43 1-15.695 1v.6c6.283 0 11.786-.364 15.79-1.007l-.095-.592zm-4.503.618c1.727 0 3.195-.006 4.554-.021l-.007-.6c-1.356.015-2.821.021-4.547.021v.6zm-.002 0h.002v-.6h-.002v.6zm-6.44-.006l6.44.006v-.6l-6.44-.006v.6zm-3.688.01c1.285-.006 2.52-.01 3.688-.01v-.6c-1.168 0-2.405.004-3.69.01l.002.6zm-.97.003l.97-.003-.002-.6-.97.003.002.6zM26 5.896c-3.035 0-6.203-.122-9.205-.36l-.047.6c3.018.237 6.201.36 9.252.36v-.6zm2.246-.016c-.735.01-1.484.015-2.246.015v.6c.765 0 1.517-.005 2.254-.015l-.008-.6zm.304 1.8v-1.5h-.6v1.5h.6zm-11.779.3H28.25v-.6H16.771v.6zm-.3-2.144V7.68h.6V5.836h-.6zm-4.721 24.8c-1.63 0-2.95-1.311-2.95-2.917h-.6c0 1.943 1.594 3.516 3.55 3.516v-.6zm2.95-2.917c0 1.606-1.32 2.916-2.95 2.916v.6c1.956 0 3.55-1.573 3.55-3.516h-.6zm-2.95-2.916c1.63 0 2.95 1.31 2.95 2.916h.6c0-1.943-1.594-3.516-3.55-3.516v.6zM8.8 27.719c0-1.606 1.32-2.916 2.95-2.916v-.6c-1.956 0-3.55 1.573-3.55 3.516h.6zm26.15 0c0 1.943 1.594 3.516 3.55 3.516v-.6c-1.63 0-2.95-1.31-2.95-2.916h-.6zm3.55-3.516c-1.956 0-3.55 1.573-3.55 3.516h.6c0-1.606 1.32-2.916 2.95-2.916v-.6zm3.55 3.516c0-1.943-1.594-3.516-3.55-3.516v.6c1.63 0 2.95 1.31 2.95 2.916h.6zm-3.55 3.516c1.956 0 3.55-1.573 3.55-3.516h-.6c0 1.606-1.32 2.916-2.95 2.916v.6zm4.982-4.306c-.385-2.384-2.47-4.21-4.982-4.21v.6c2.215 0 4.051 1.61 4.39 3.706l.592-.096zm5.768-.252h-6.065v.6h6.065v-.6zm-.3-.195v.495h.6v-.495h-.6zm-4.2.3h4.5v-.6h-4.5v.6zm-.3-1.784v1.484h.6v-1.484h-.6zm3.8-.3h-3.5v.6h3.5v-.6zm-.3-2.42v2.72h.6v-2.72h-.6zm-.687-4.11a12.64 12.64 0 01.687 4.11h.6c0-1.507-.256-2.952-.72-4.305l-.567.195zM36 18.371h11.547v-.6H36v.6zm-2.05-2.032c0 1.123.922 2.032 2.05 2.032v-.6c-.802 0-1.45-.646-1.45-1.432h-.6zm0-3.958v3.958h.6V12.38h-.6zM36 10.349c-1.128 0-2.05.908-2.05 2.032h.6c0-.787.648-1.432 1.45-1.432v-.6zm5.111 0H36v.6h5.111v-.6zm-6.113-.885c2.154 0 4.187.527 5.976 1.451l.275-.533a13.594 13.594 0 00-6.251-1.518v.6zm-25.496 0h25.496v-.6H9.502v.6zM5.05 13.867c0-2.423 1.994-4.403 4.452-4.403v-.6c-2.784 0-5.052 2.242-5.052 5.003h.6zm0 2.72v-2.72h-.6v2.72h.6zm7.235-.3H4.75v.6h7.535v-.6zm.3 1.784v-1.485h-.6v1.485h.6zm-7.835.3h7.535v-.6H4.75v.6zm.3 6.627V18.07h-.6v6.927h.6zm.7-.3h-1v.6h1v-.6zm.3 1.784v-1.484h-.6v1.484h.6zm-3.3.3h3v-.6h-3v.6zm.3.195v-.495h-.6v.495h.6zm4.014-.3H2.75v.6h4.314v-.6zm4.686-3.958c-2.512 0-4.595 1.826-4.982 4.21l.592.096c.34-2.096 2.175-3.706 4.39-3.706v-.6zm4.982 4.21c-.385-2.384-2.47-4.21-4.982-4.21v.6c2.215 0 4.051 1.61 4.39 3.706l.592-.096zm17.082-.252H16.435v.6h17.38v-.6zm4.686-3.958c-2.511 0-4.595 1.826-4.982 4.21l.593.096c.34-2.096 2.174-3.706 4.389-3.706v-.6z" fill="#222532"/><path fill-rule="evenodd" clip-rule="evenodd" d="M23.75 12.38v3.958c0 .955-.785 1.732-1.75 1.732h-5c-.965 0-1.75-.777-1.75-1.732V12.38c0-.955.785-1.732 1.75-1.732h5c.965 0 1.75.777 1.75 1.732zm-7 0v3.958c0 .136.115.248.25.248h5c.135 0 .25-.114.25-.247V12.38a.253.253 0 00-.25-.247h-5a.253.253 0 00-.25.247z" fill="#fff"/><path d="M24.05 16.338V12.38h-.6v3.958h.6zM22 18.37c1.128 0 2.05-.908 2.05-2.032h-.6c0 .787-.648 1.432-1.45 1.432v.6zm-5 0h5v-.6h-5v.6zm-2.05-2.032c0 1.124.922 2.032 2.05 2.032v-.6c-.802 0-1.45-.645-1.45-1.431h-.6zm0-3.958v3.958h.6V12.38h-.6zM17 10.348c-1.128 0-2.05.909-2.05 2.032h.6c0-.786.648-1.432 1.45-1.432v-.6zm5 0h-5v.6h5v-.6zm2.05 2.032A2.043 2.043 0 0022 10.348v.6c.802 0 1.45.646 1.45 1.432h.6zm-7 3.958V12.38h-.6v3.958h.6zm-.05-.052c.017 0 .028.007.035.013.007.007.015.02.015.04h-.6c0 .305.254.547.55.547v-.6zm5 0h-5v.6h5v-.6zm-.05.052c0-.02.009-.033.015-.039a.05.05 0 01.035-.013v.6c.297 0 .55-.245.55-.547h-.6zm0-3.958v3.958h.6V12.38h-.6zm.05.053a.05.05 0 01-.035-.013.055.055 0 01-.015-.04h.6a.553.553 0 00-.55-.547v.6zm-5 0h5v-.6h-5v.6zm.05-.053a.055.055 0 01-.015.04.05.05 0 01-.035.013v-.6a.553.553 0 00-.55.547h.6z" fill="#222532"/><path fill-rule="evenodd" clip-rule="evenodd" d="M26.5 10.648h5c.965 0 1.75.777 1.75 1.732v3.958c0 .955-.785 1.732-1.75 1.732h-5c-.965 0-1.75-.777-1.75-1.732V12.38c0-.955.785-1.732 1.75-1.732zm5 5.938c.135 0 .25-.114.25-.247V12.38a.253.253 0 00-.25-.247h-5a.253.253 0 00-.25.247v3.958c0 .134.115.248.25.248h5z" fill="#fff"/><path d="M31.5 10.348h-5v.6h5v-.6zm2.05 2.032a2.043 2.043 0 00-2.05-2.032v.6c.802 0 1.45.646 1.45 1.432h.6zm0 3.958V12.38h-.6v3.958h.6zM31.5 18.37c1.128 0 2.05-.908 2.05-2.032h-.6c0 .787-.648 1.432-1.45 1.432v.6zm-5 0h5v-.6h-5v.6zm-2.05-2.032c0 1.124.922 2.032 2.05 2.032v-.6c-.802 0-1.45-.645-1.45-1.431h-.6zm0-3.958v3.958h.6V12.38h-.6zm2.05-2.032c-1.128 0-2.05.909-2.05 2.032h.6c0-.786.648-1.432 1.45-1.432v-.6zm4.95 5.99c0-.02.009-.033.015-.039a.05.05 0 01.035-.013v.6c.297 0 .55-.245.55-.547h-.6zm0-3.958v3.958h.6V12.38h-.6zm.05.053a.05.05 0 01-.035-.013.055.055 0 01-.015-.04h.6a.553.553 0 00-.55-.547v.6zm-5 0h5v-.6h-5v.6zm.05-.053a.055.055 0 01-.015.04.05.05 0 01-.035.013v-.6a.553.553 0 00-.55.547h.6zm0 3.958V12.38h-.6v3.958h.6zm-.05-.052a.05.05 0 01.035.013.055.055 0 01.015.04h-.6c0 .302.253.547.55.547v-.6zm5 0h-5v.6h5v-.6z" fill="#222532"/><path fill-rule="evenodd" clip-rule="evenodd" d="M36.5 27.719c0-1.092.897-1.98 2-1.98s2 .89 2 1.98c0 1.092-.897 1.979-2 1.979s-2-.887-2-1.98zm1.5 0a.5.5 0 001 0 .498.498 0 00-.5-.495c-.275 0-.5.222-.5.495z" fill="#fff"/><path d="M38.5 25.44c-1.266 0-2.3 1.018-2.3 2.279h.6c0-.924.76-1.68 1.7-1.68v-.6zm2.3 2.279c0-1.259-1.034-2.28-2.3-2.28v.6c.94 0 1.7.758 1.7 1.68h.6zm-2.3 2.279c1.266 0 2.3-1.019 2.3-2.28h-.6c0 .924-.76 1.68-1.7 1.68v.6zm-2.3-2.28a2.292 2.292 0 002.3 2.28v-.6c-.94 0-1.7-.756-1.7-1.68h-.6zm2.3.196a.198.198 0 01-.2-.195h-.6c0 .441.362.795.8.795v-.6zm.2-.195a.198.198 0 01-.2.195v.6c.438 0 .8-.354.8-.795h-.6zm-.2-.195c.113 0 .2.09.2.195h.6a.798.798 0 00-.8-.795v.6zm-.2.195c0-.104.087-.195.2-.195v-.6c-.438 0-.8.354-.8.795h.6z" fill="#222532"/><path fill-rule="evenodd" clip-rule="evenodd" d="M9.75 27.719c0-1.092.896-1.98 2-1.98s2 .89 2 1.98c0 1.092-.896 1.979-2 1.979s-2-.89-2-1.98zm1.5 0a.5.5 0 001 0 .498.498 0 00-.5-.495c-.275 0-.5.222-.5.495z" fill="#fff"/><path d="M11.75 25.44c-1.266 0-2.3 1.018-2.3 2.279h.6c0-.924.76-1.68 1.7-1.68v-.6zm2.3 2.279c0-1.259-1.034-2.28-2.3-2.28v.6c.94 0 1.7.758 1.7 1.68h.6zm-2.3 2.279c1.266 0 2.3-1.019 2.3-2.28h-.6c0 .924-.76 1.68-1.7 1.68v.6zm-2.3-2.28c0 1.26 1.034 2.28 2.3 2.28v-.6c-.94 0-1.7-.758-1.7-1.68h-.6zm2.3.196a.198.198 0 01-.2-.195h-.6c0 .441.362.795.8.795v-.6zm.2-.195a.198.198 0 01-.2.195v.6c.438 0 .8-.354.8-.795h-.6zm-.2-.195c.113 0 .2.09.2.195h.6a.798.798 0 00-.8-.795v.6zm-.2.195c0-.104.087-.195.2-.195v-.6c-.438 0-.8.354-.8.795h.6z" fill="#222532"/><path d="M17.25 24.997h15.5v1.485h-15.5v-1.485z" fill="#fff" stroke="#222532" stroke-width=".6"/></svg>