<svg width="24" height="24" fill="none" xmlns="http://www.w3.org/2000/svg"><path fill-rule="evenodd" clip-rule="evenodd" d="M23.33 23.33a2.285 2.285 0 000-3.232l-4.716-4.716c-.335-.335-.422-.944-.197-1.36 0 0-.015.063.15-.301a9.68 9.68 0 00.862-4.007A9.713 9.713 0 009.714 0 9.713 9.713 0 000 9.714a9.713 9.713 0 009.714 9.715 9.669 9.669 0 003.996-.857c.368-.166.31-.152.31-.152.422-.226 1.027-.141 1.362.194l4.716 4.716c.893.893 2.34.893 3.232 0zM15.143 9.714a5.429 5.429 0 11-10.858 0 5.429 5.429 0 0110.858 0z" fill="#fff"/></svg>